<svg xmlns="http://www.w3.org/2000/svg" width="23.41" height="23.344" viewBox="0 0 23.41 23.344">
  <metadata><?xpacket begin="﻿" id="W5M0MpCehiHzreSzNTczkc9d"?>
<x:xmpmeta xmlns:x="adobe:ns:meta/" x:xmptk="Adobe XMP Core 5.6-c142 79.160924, 2017/07/13-01:06:39        ">
   <rdf:RDF xmlns:rdf="http://www.w3.org/1999/02/22-rdf-syntax-ns#">
      <rdf:Description rdf:about=""/>
   </rdf:RDF>
</x:xmpmeta>
                                                                                                    
                                                                                                    
                                                                                                    
                                                                                                    
                                                                                                    
                                                                                                    
                                                                                                    
                                                                                                    
                                                                                                    
                                                                                                    
                                                                                                    
                                                                                                    
                                                                                                    
                                                                                                    
                                                                                                    
                                                                                                    
                                                                                                    
                                                                                                    
                                                                                                    
                                                                                                    
                           
<?xpacket end="w"?></metadata>
<defs>
    <style>
      .cls-1 {
        fill: #282828;
        fill-rule: evenodd;
      }
    </style>
  </defs>
  <path id="Фигура_31" data-name="Фигура 31" class="cls-1" d="M1547.27,34.008a5.776,5.776,0,0,0-5.78,5.762V41.1h-1.65a2.615,2.615,0,0,0-2.57,1.9l-1.7,11.819a2.231,2.231,0,0,0,2.21,2.53h18.99a2.216,2.216,0,0,0,2.2-2.53L1557.28,43c-0.29-1.977-2.12-1.939-3.6-1.909-0.16,0-.32.007-0.47,0.007h-0.15V39.77A5.584,5.584,0,0,0,1547.27,34.008Zm-3.71,5.762a3.71,3.71,0,0,1,3.71-3.693,3.466,3.466,0,0,1,3.71,3.693V41.1h-7.42V39.77Zm9.82,3.4c0.93-.017,1.82-0.008,1.98,1.141l1.36,9.455a1.319,1.319,0,0,1-.31,1.06,1.346,1.346,0,0,1-1.01.458h-16.25a1.341,1.341,0,0,1-1.33-1.518c0.32-2.211.54-3.943,0.72-5.333,0.67-5.185.69-5.3,2.48-5.265l0.47,0v0.148c0,0.287-.01.568-0.02,0.838a3.715,3.715,0,0,0,.34,2.318,0.958,0.958,0,0,0,.71.242,1.034,1.034,0,0,0,1.04-1.034V43.168h7.42v2.511a1.04,1.04,0,0,0,2.08,0V43.168h0.32Z" transform="translate(-1535.56 -34)"/>
</svg>
