<svg xmlns="http://www.w3.org/2000/svg" width="22.69" height="22.625" viewBox="0 0 22.69 22.625">
  <metadata><?xpacket begin="﻿" id="W5M0MpCehiHzreSzNTczkc9d"?>
<x:xmpmeta xmlns:x="adobe:ns:meta/" x:xmptk="Adobe XMP Core 5.6-c142 79.160924, 2017/07/13-01:06:39        ">
   <rdf:RDF xmlns:rdf="http://www.w3.org/1999/02/22-rdf-syntax-ns#">
      <rdf:Description rdf:about=""/>
   </rdf:RDF>
</x:xmpmeta>
                                                                                                    
                                                                                                    
                                                                                                    
                                                                                                    
                                                                                                    
                                                                                                    
                                                                                                    
                                                                                                    
                                                                                                    
                                                                                                    
                                                                                                    
                                                                                                    
                                                                                                    
                                                                                                    
                                                                                                    
                                                                                                    
                                                                                                    
                                                                                                    
                                                                                                    
                                                                                                    
                           
<?xpacket end="w"?></metadata>
<defs>
    <style>
      .cls-1 {
        fill: #282828;
        fill-rule: evenodd;
      }
    </style>
  </defs>
  <path id="Фигура_32" data-name="Фигура 32" class="cls-1" d="M1492.41,58.069h2.09a2.25,2.25,0,0,0,1.76-.838,2.02,2.02,0,0,0,.41-1.7,10.773,10.773,0,0,0-6.94-7.883l-0.24-.089,0.2-.158a6.646,6.646,0,0,0,2.49-6.292,6.881,6.881,0,0,0-5.99-5.646,7.055,7.055,0,0,0-5.47,1.71,6.632,6.632,0,0,0,.33,10.229l0.2,0.158-0.24.089a10.766,10.766,0,0,0-6.95,7.883,2.023,2.023,0,0,0,.41,1.7,2.249,2.249,0,0,0,1.76.837h2.1a1,1,0,1,0,0-2.007h-0.51a1.318,1.318,0,0,1-1.11-.595,1.166,1.166,0,0,1-.12-1.139,9.81,9.81,0,0,1,17.56,0,1.217,1.217,0,0,1-.12,1.138,1.347,1.347,0,0,1-1.12.6h-0.5A1,1,0,1,0,1492.41,58.069Zm-7.04-11.183a4.732,4.732,0,1,1,4.83-4.731A4.791,4.791,0,0,1,1485.37,46.886Zm-2.35,11.183h4.69a1,1,0,1,0,0-2.007h-4.69A1,1,0,1,0,1483.02,58.069Z" transform="translate(-1474.03 -35.438)"/>
</svg>
